<mxfile host="app.diagrams.net" modified="2024-01-26T14:03:26.748Z" agent="Mozilla/5.0 (Windows NT 10.0; Win64; x64) AppleWebKit/537.36 (KHTML, like Gecko) Chrome/121.0.0.0 Safari/537.36 Edg/121.0.0.0" version="22.1.16" etag="3nCwBIJBpibThqddp3bz" type="github">
  <diagram name="第 1 页" id="TsvRHG8YH_mwFPJLIUgm">
    <mxGraphModel>
      <root>
        <mxCell id="0" />
        <mxCell id="1" parent="0" />
      </root>
    </mxGraphModel>
  </diagram>
</mxfile>
